<svg version="1.1" id="Layer_1" xmlns="http://www.w3.org/2000/svg" xmlns:xlink="http://www.w3.org/1999/xlink" x="0px" y="0px"
	 width="100%" viewBox="0 0 264 219" enable-background="new 0 0 264 219" xml:space="preserve">
<path fill="#48BB01" opacity="1.000000" stroke="none" 
	d="
M1.000000,206.000000 
	C1.000000,142.312439 1.000000,78.624878 1.328920,14.670941 
	C4.994837,9.363422 8.912382,4.973361 14.662816,2.560394 
	C14.943962,2.442421 14.895160,1.538134 15.000000,1.000000 
	C93.687561,1.000000 172.375122,1.000000 251.329071,1.328922 
	C256.636627,4.994801 261.026642,8.912359 263.439606,14.662816 
	C263.557587,14.943966 264.461853,14.895160 265.000000,15.000000 
	C265.000000,78.687561 265.000000,142.375122 264.671082,206.329071 
	C261.005157,211.636581 257.087585,216.026581 251.337173,218.439590 
	C251.056030,218.557587 251.104828,219.461868 251.000000,220.000000 
	C172.312439,220.000000 93.624878,220.000000 14.670942,219.671082 
	C9.363444,216.005157 4.973368,212.087631 2.560400,206.337189 
	C2.442418,206.056046 1.538134,206.104843 1.000000,206.000000 
M212.553223,46.906406 
	C197.183655,38.448570 180.632355,35.588814 163.349380,37.175919 
	C150.630447,38.343910 139.377441,43.248230 130.517365,52.674637 
	C121.053268,44.251663 116.057343,41.096973 106.683510,38.951401 
	C84.736267,33.927906 64.048004,37.483326 44.759575,48.981476 
	C37.072762,53.563713 34.771248,61.964134 38.864941,69.152145 
	C42.854164,76.156715 51.528397,78.440712 59.349087,74.555000 
	C63.514851,72.485237 67.572960,70.139793 71.882950,68.431755 
	C80.535011,65.002968 89.485321,63.363716 98.719749,65.898651 
	C104.101357,67.375961 107.935036,70.543541 108.614876,76.463211 
	C109.251389,82.005630 106.807243,86.318336 100.615761,88.893906 
	C94.657631,91.372414 88.425735,93.262947 82.204155,95.023132 
	C69.881569,98.509377 57.387135,101.498680 46.675220,109.024750 
	C39.108162,114.341286 37.094578,124.136993 42.005318,131.427841 
	C46.806450,138.555954 57.440857,140.987854 64.600594,135.682373 
	C72.202682,130.049103 80.815582,127.418671 89.640823,125.011459 
	C104.044662,121.082596 118.750038,117.897713 130.503662,107.625725 
	C141.187332,117.167992 154.393158,120.212379 167.310059,124.053253 
	C175.404678,126.460213 183.691940,128.734375 191.201294,132.461334 
	C200.160095,136.907654 199.691345,148.626846 190.776688,153.240021 
	C187.768845,154.796524 184.194763,155.671173 180.797821,155.991425 
	C166.788849,157.312057 154.190460,153.188675 142.657028,145.376953 
	C133.172546,138.953003 128.077286,139.378052 118.403259,145.033585 
	C111.454865,149.095688 103.843498,152.177002 96.254959,154.948563 
	C88.398537,157.817963 84.177277,164.372269 86.090919,172.453873 
	C87.746170,179.444260 95.158958,184.337799 102.729462,182.355057 
	C111.038353,180.178909 119.030029,176.814835 127.245247,174.240677 
	C129.192841,173.630402 131.624725,173.604385 133.588303,174.166840 
	C144.081726,177.172455 154.308197,181.597076 164.985336,183.356812 
	C179.952316,185.823593 194.977203,184.429596 208.559341,176.552124 
	C223.655869,167.796326 229.582397,154.110229 229.008011,137.120239 
	C228.485535,121.666634 220.596222,111.090858 206.929260,104.826981 
	C200.016937,101.658913 192.670883,99.401192 185.439407,96.974838 
	C176.944000,94.124413 168.214783,91.916084 159.863953,88.708183 
	C153.960327,86.440353 151.622299,81.907822 152.191193,76.562645 
	C152.796158,70.878685 156.328201,66.834061 161.550491,66.259346 
	C168.673416,65.475479 176.191544,65.294182 183.137604,66.761093 
	C189.640106,68.134338 195.669846,71.882500 201.814713,74.782372 
	C212.005692,79.591698 223.475113,73.381172 223.895691,62.628578 
	C224.198563,54.885628 219.532410,50.446785 212.553223,46.906406 
M40.372986,162.163544 
	C40.140553,163.129486 39.850056,164.085602 39.684776,165.062912 
	C38.215061,173.753464 43.213863,180.911163 51.878292,182.554291 
	C60.229942,184.138077 67.992134,178.851273 69.598854,170.484863 
	C70.975853,163.314667 66.992516,156.355026 60.080391,153.854355 
	C52.403996,151.077194 45.083088,153.965515 40.372986,162.163544 
z"/>
<path fill="#000000" opacity="1.000000" stroke="none" 
	d="
M14.525872,1.000000 
	C14.895160,1.538134 14.943962,2.442421 14.662816,2.560394 
	C8.912382,4.973361 4.994837,9.363422 1.328920,14.202284 
	C1.000000,9.739966 1.000000,5.479933 1.000000,1.000000 
	C5.349030,1.000000 9.700387,1.000000 14.525872,1.000000 
z"/>
<path fill="#000000" opacity="1.000000" stroke="none" 
	d="
M265.000000,14.525871 
	C264.461853,14.895160 263.557587,14.943966 263.439606,14.662816 
	C261.026642,8.912359 256.636627,4.994801 251.797729,1.328922 
	C256.260040,1.000000 260.520050,1.000000 265.000000,1.000000 
	C265.000000,5.349030 265.000000,9.700387 265.000000,14.525871 
z"/>
<path fill="#000000" opacity="1.000000" stroke="none" 
	d="
M1.000000,206.474121 
	C1.538134,206.104843 2.442418,206.056046 2.560400,206.337189 
	C4.973368,212.087631 9.363444,216.005157 14.202286,219.671082 
	C9.739966,220.000000 5.479933,220.000000 1.000000,220.000000 
	C1.000000,215.650970 1.000000,211.299622 1.000000,206.474121 
z"/>
<path fill="#000000" opacity="1.000000" stroke="none" 
	d="
M251.474121,220.000000 
	C251.104828,219.461868 251.056030,218.557587 251.337173,218.439590 
	C257.087585,216.026581 261.005157,211.636581 264.671082,206.797729 
	C265.000000,211.260040 265.000000,215.520065 265.000000,220.000000 
	C260.650970,220.000000 256.299622,220.000000 251.474121,220.000000 
z"/>
<path fill="#FEFEFD" opacity="1.000000" stroke="none" 
	d="
M212.886536,47.060600 
	C219.532410,50.446785 224.198563,54.885628 223.895691,62.628578 
	C223.475113,73.381172 212.005692,79.591698 201.814713,74.782372 
	C195.669846,71.882500 189.640106,68.134338 183.137604,66.761093 
	C176.191544,65.294182 168.673416,65.475479 161.550491,66.259346 
	C156.328201,66.834061 152.796158,70.878685 152.191193,76.562645 
	C151.622299,81.907822 153.960327,86.440353 159.863953,88.708183 
	C168.214783,91.916084 176.944000,94.124413 185.439407,96.974838 
	C192.670883,99.401192 200.016937,101.658913 206.929260,104.826981 
	C220.596222,111.090858 228.485535,121.666634 229.008011,137.120239 
	C229.582397,154.110229 223.655869,167.796326 208.559341,176.552124 
	C194.977203,184.429596 179.952316,185.823593 164.985336,183.356812 
	C154.308197,181.597076 144.081726,177.172455 133.588303,174.166840 
	C131.624725,173.604385 129.192841,173.630402 127.245247,174.240677 
	C119.030029,176.814835 111.038353,180.178909 102.729462,182.355057 
	C95.158958,184.337799 87.746170,179.444260 86.090919,172.453873 
	C84.177277,164.372269 88.398537,157.817963 96.254959,154.948563 
	C103.843498,152.177002 111.454865,149.095688 118.403259,145.033585 
	C128.077286,139.378052 133.172546,138.953003 142.657028,145.376953 
	C154.190460,153.188675 166.788849,157.312057 180.797821,155.991425 
	C184.194763,155.671173 187.768845,154.796524 190.776688,153.240021 
	C199.691345,148.626846 200.160095,136.907654 191.201294,132.461334 
	C183.691940,128.734375 175.404678,126.460213 167.310059,124.053253 
	C154.393158,120.212379 141.187332,117.167992 130.503662,107.625725 
	C118.750038,117.897713 104.044662,121.082596 89.640823,125.011459 
	C80.815582,127.418671 72.202682,130.049103 64.600594,135.682373 
	C57.440857,140.987854 46.806450,138.555954 42.005318,131.427841 
	C37.094578,124.136993 39.108162,114.341286 46.675220,109.024750 
	C57.387135,101.498680 69.881569,98.509377 82.204155,95.023132 
	C88.425735,93.262947 94.657631,91.372414 100.615761,88.893906 
	C106.807243,86.318336 109.251389,82.005630 108.614876,76.463211 
	C107.935036,70.543541 104.101357,67.375961 98.719749,65.898651 
	C89.485321,63.363716 80.535011,65.002968 71.882950,68.431755 
	C67.572960,70.139793 63.514851,72.485237 59.349087,74.555000 
	C51.528397,78.440712 42.854164,76.156715 38.864941,69.152145 
	C34.771248,61.964134 37.072762,53.563713 44.759575,48.981476 
	C64.048004,37.483326 84.736267,33.927906 106.683510,38.951401 
	C116.057343,41.096973 121.053268,44.251663 130.517365,52.674637 
	C139.377441,43.248230 150.630447,38.343910 163.349380,37.175919 
	C180.632355,35.588814 197.183655,38.448570 212.886536,47.060600 
z"/>
<path fill="#FCFEFA" opacity="1.000000" stroke="none" 
	d="
M40.557610,161.823715 
	C45.083088,153.965515 52.403996,151.077194 60.080391,153.854355 
	C66.992516,156.355026 70.975853,163.314667 69.598854,170.484863 
	C67.992134,178.851273 60.229942,184.138077 51.878292,182.554291 
	C43.213863,180.911163 38.215061,173.753464 39.684776,165.062912 
	C39.850056,164.085602 40.140553,163.129486 40.557610,161.823715 
z"/>
</svg>